<?xml version="1.0" encoding="UTF-8"?>
<!DOCTYPE svg PUBLIC "-//W3C//DTD SVG 1.1//EN" "http://www.w3.org/Graphics/SVG/1.1/DTD/svg11.dtd">
<!-- Creator: CorelDRAW 2018 (64-Bit) -->
<svg xmlns="http://www.w3.org/2000/svg" xml:space="preserve" width="11.0066mm" height="3.7252mm" version="1.1" style="shape-rendering:geometricPrecision; text-rendering:geometricPrecision; image-rendering:optimizeQuality; fill-rule:evenodd; clip-rule:evenodd"
viewBox="0 0 1100.66 372.52"
 xmlns:xlink="http://www.w3.org/1999/xlink">
 <defs>
  <style type="text/css">
   <![CDATA[
    .fil0 {fill:#181C31}
    .fil1 {fill:white}
    .fil2 {fill:#181C31;fill-rule:nonzero}
   ]]>
  </style>
 </defs>
 <g id="Слой_x0020_1">
  <metadata id="CorelCorpID_0Corel-Layer"/>
  <g id="_3321977926848">
   <path class="fil0" d="M549.99 88.6l-40.47 23.06c4.43,10.62 13.92,20.52 27.03,16.71 34.82,-10.11 61.4,-37.67 90.22,8.19 5.1,-11.33 -1.71,-18.04 -3.08,-27.65 6.14,7.12 19.84,12.19 22.51,30.4 14.37,-16.15 15.08,-26.58 14.51,-37.25 9.6,3.29 10.16,18.15 10.96,24.88 5.91,-12.24 -0.1,-36.95 -5.54,-47.49 -2.94,-5.7 -8.65,-13.2 -12.62,-16.42 -3.49,-2.84 -12.1,-9.85 -17.35,-11.66 -1.01,8.52 -3.05,11.27 -5.67,16.9 -2.04,-3.41 1.67,-9.84 0.16,-22.3 -0.87,-7.12 -3.47,-13.37 -6.44,-18.38 -5.12,-8.62 -15.99,-18.07 -27.63,-22.52 -1.11,27.77 -1.72,33.23 -20.36,44.65 -15.99,9.79 -25.11,14.2 -26.23,38.88z"/>
   <path class="fil0" d="M527.78 133.69c2.92,1.47 5.62,4.4 10.41,6.21 4.73,1.77 9.96,2.1 15.29,1.44l-5.03 -1.9 8.15 -0.66c-0.21,-0.19 -0.56,-0.6 -0.67,-0.41l-2.66 -1.91 10.3 -0.85 -5.35 -2.46c7.67,-4.62 14.6,-9.68 26.48,-8.46 10.55,1.09 17.74,7.01 24.6,11.01 -2.16,-4.41 -9.59,-11.56 -14.28,-14.56 -23.32,-14.87 -40.28,11.82 -67.24,12.55z"/>
   <path class="fil0" d="M572.23 47.09c16.5,-7.45 25.68,-11.52 10.62,-25.87 -2.38,-2.26 -6.66,-5.79 -10.48,-7.38l-0.14 33.25z"/>
   <path class="fil1" d="M566.48 84.3c7.48,2.17 12.61,-6.22 12.24,-13.46 -6.18,1.87 -12.76,5.72 -12.24,13.46z"/>
  </g>
  <g id="_3321977925664">
   <path class="fil0" d="M476.93 94.51l36.83 -0.22c-15.48,5.49 -71.34,34.96 -76.23,41.59 8,-0.78 14.87,-4.21 24.39,-4.3 -0.71,3.08 -4.93,12.72 -6.84,14.77 -3.61,3.88 -10.77,2.32 -17.56,2.67 2.03,-3.34 4.36,-4.95 7.18,-7.39 -7.15,0.19 -20.51,4.02 -25.12,6.46 -12.6,6.65 -19.31,19.11 -27.37,18.83 -2.82,-0.1 -11.83,-1.53 -14.03,-1.82 -14.39,-1.94 -28.66,-1.94 -42.54,-1.94 -30.83,0 -42.81,7.33 -61.49,10.28 -33.82,5.33 -25.69,3.49 -59.07,11.24 5.52,-9.63 46.61,-20.75 62.8,-24.72 42.48,-10.4 55.1,-10.06 94.83,-14.27 27.51,-2.91 29.22,0.92 51.04,-13.53 10.67,-7.07 44.07,-28.08 55.39,-30.72 -3.94,-2.37 -15.59,4.14 -22.83,7.27 -6.59,2.85 -15.27,6.8 -21.64,9.97l-43.07 20.11c5.45,-7.55 52.34,-30.88 85.33,-44.28z"/>
   <path class="fil0" d="M846.04 118.18c8.92,-3.02 22.53,-0.76 32.17,-2.39 -1.98,4.99 2.04,0.63 -4.31,4.43l-60.56 29.77c-13.77,7.1 -63.95,0.4 -93.78,4.04 -24.6,3.01 -102.32,7.78 -122.73,7.71l-63.06 1.59c-30.85,2.42 -95.37,4.14 -126.38,4.14 1.77,-3.61 10.23,-10.98 13.62,-12.19 6.24,-2.24 56.7,-2.95 68.63,-4.5 14.43,-1.88 72.98,-3.11 94.05,-5.06 54.33,-5.03 105.51,-6.98 160.97,-12.66 33.19,-3.44 70.1,-4.27 101.38,-14.88z"/>
   <path class="fil0" d="M681.49 226.29c-9.7,0.11 -26.38,4.08 -35.94,5.69l-106.68 18.15c-17.64,3.01 -138.11,21.72 -142.66,24.66 10.12,0.83 216.6,-19.25 252.31,-21.18 12.11,-0.66 11.95,-2 22.25,-0.97l-80.58 18.67c-6.66,1.3 -6.73,-0.13 -10.61,3.79l114.83 0c-1.31,-45.11 11.22,-86.11 61.7,-86.11 6.51,0 18.76,2.98 23.85,4.87 7.97,2.96 13.73,6.38 18.87,11.24 7.51,7.1 13.53,16.29 16.74,26.3 1.32,4.11 1.76,9.31 4.57,12.41 1.64,-17.51 -6.95,-37.54 -15.58,-47.28 -16.28,-18.37 -37.61,-20.47 -59.93,-20.47 -13.43,0 -30.75,9.61 -39.52,16.43 -8.37,6.51 -21.01,22.58 -23.62,33.8z"/>
   <path class="fil0" d="M196.48 254.24c8.33,1.75 14.86,6.9 22.08,9.89 4.46,1.84 6.67,2.98 11.17,4.61 4.68,1.7 8.92,1.26 6.45,6.29l27.32 -0.1c-4.32,-40.82 13.45,-82.16 62.52,-85.67 17.34,-1.24 39.07,7.63 49.85,22.64 5.01,6.98 8.95,16.49 11.1,26.21 1.38,6.21 1.76,9.18 2.1,16.35 0.18,3.82 -0.17,3.95 -0.27,7.76 -0.03,1.4 -0.14,2.8 0.08,4.18 1.29,7.91 -1.55,-4.6 0.72,2.65 0.13,0.43 0.42,0.9 0.54,1.24 0.13,0.34 0.36,0.84 0.61,1.21 4.11,-17.91 2.77,-41.97 -5.31,-59.1 -3.5,-7.41 -5.82,-9.16 -9.61,-14.8 22.42,-2.74 48.53,-4.76 71.74,-5.76l217.9 -17.72c-1.8,-0.59 -104.4,2.74 -115.65,3.64 -39.38,3.11 -78.89,2.88 -118.09,4.07 -31.55,0.96 -58.8,6.16 -84.29,-0.26 -8.78,-2.21 -18.53,-3.18 -29.04,-2.65 -34.87,1.75 -58.85,25.17 -66,55.98 -7.26,2.06 -18.49,3.33 -24.39,5.76 0.2,7.31 1.44,5.6 2.9,11.51 -5.56,1.31 -5.94,3.07 -11.59,4.35 -1.3,-3.05 -7.35,-21.96 -7.79,-25.26 -0.57,-4.35 2.02,-6.75 4.99,-9.25 12.15,-10.27 47.6,-34.14 49.13,-36.02 -7.45,1.2 -19.65,7.8 -26.91,10.83 -6.07,2.54 -21.1,10.36 -26.51,10.82 0,-10.71 2.31,-11.21 20.07,-18.64 4.48,-1.87 8.6,-3.15 13.81,-4.87l11.14 -3.24c0.44,-0.16 1.73,-0.73 2.09,-0.9 0.29,-0.13 0.77,-0.41 1,-0.52 0.22,-0.11 0.66,-0.34 0.98,-0.54 -10.17,0 -29.66,4.59 -37.78,7.01 -18.61,5.54 -18.5,3.78 -18.5,26.01 -23.53,13.79 -3.1,23.64 0.08,37.4 -4.42,-2.77 -2.17,-3.11 -7.16,-4.31 0.02,6.26 0.11,4.73 -1.48,9.2zm39.7 20.79c2.47,-5.03 -1.77,-4.59 -6.45,-6.29 -4.5,-1.63 -6.71,-2.77 -11.17,-4.61 -7.22,-2.99 -13.75,-8.14 -22.08,-9.89 -0.52,6.57 -1.74,6.42 -1.13,13.67 8.6,5.53 27.32,7.34 40.83,7.12z"/>
   <path class="fil0" d="M848.81 264.88l-3.74 -2.71c0.24,-0.16 0.68,-0.27 0.82,-0.32 5.62,-2.05 4.06,-0.73 7.49,-5.55l16.76 -17.89c7.19,-8.67 4.73,-8.32 9.25,-9 2.63,-0.39 3.25,0.09 7.29,0.66l0.88 -3.8 -6.63 -2.84c5.46,-32.59 6.07,-44.32 -12.13,-68.23 -4.62,-6.08 -9.76,-9.19 -13.66,-15.01l-14.57 7c-5.67,3.35 -2.52,-0.24 -4.1,4.49 11.75,3.14 30.82,23.88 35.02,41.03 3.04,12.45 2.61,19.88 -2.79,29.84 -4.44,8.18 -8.84,17.51 -13.36,25.18l-35.85 3.36 -0.25 18.24 29.57 -4.45zm15.98 -3.96l15.11 -3.69 1.05 -3.74c0.31,-1.15 0.52,-2.32 0.79,-3.49 0.75,-3.23 1.39,-5.28 2.02,-8.38 -7.59,-3.11 -9.04,5.94 -15.75,10.86l-3.22 8.44zm-15.98 3.96l15.98 -3.96 3.22 -8.44c6.71,-4.92 8.16,-13.97 15.75,-10.86l2.92 -11.55c-4.04,-0.57 -4.66,-1.05 -7.29,-0.66 -4.52,0.68 -2.06,0.33 -9.25,9l-16.76 17.89c-3.43,4.82 -1.87,3.5 -7.49,5.55 -0.14,0.05 -0.58,0.16 -0.82,0.32l3.74 2.71z"/>
  </g>
  <path class="fil2" d="M399.08 342.59l12.35 -0.9c0.57,4.05 1.93,7.37 4.09,9.98 2.14,2.59 5.48,4.69 9.99,6.3 4.5,1.6 9.59,2.4 15.23,2.4 5.02,0 9.44,-0.6 13.27,-1.82 3.85,-1.22 6.68,-2.89 8.55,-5.01 1.88,-2.12 2.83,-4.42 2.83,-6.9 0,-2.51 -0.9,-4.71 -2.7,-6.61 -1.81,-1.87 -4.8,-3.45 -8.95,-4.74 -2.66,-0.83 -8.56,-2.14 -17.69,-3.92 -9.14,-1.79 -15.52,-3.46 -19.17,-5.03 -4.74,-2.03 -8.25,-4.54 -10.57,-7.53 -2.33,-2.98 -3.49,-6.34 -3.49,-10.03 0,-4.1 1.43,-7.9 4.28,-11.43 2.85,-3.55 6.99,-6.23 12.46,-8.07 5.46,-1.84 11.54,-2.76 18.22,-2.76 7.36,0 13.85,0.96 19.47,2.89 5.62,1.92 9.95,4.75 12.97,8.5 3.03,3.74 4.64,7.98 4.88,12.7l-12.62 0.79c-0.68,-5.08 -2.96,-8.93 -6.87,-11.52 -3.91,-2.61 -9.69,-3.9 -17.32,-3.9 -7.95,0 -13.75,1.18 -17.39,3.54 -3.62,2.37 -5.46,5.22 -5.46,8.56 0,2.89 1.3,5.27 3.87,7.15 2.54,1.86 9.13,3.79 19.82,5.74 10.68,1.97 18,3.68 21.98,5.14 5.75,2.16 10.03,4.88 12.79,8.2 2.75,3.3 4.12,7.11 4.12,11.43 0,4.3 -1.51,8.31 -4.54,12.1 -3.03,3.79 -7.35,6.74 -13.01,8.84 -5.67,2.1 -12.03,3.15 -19.13,3.15 -8.97,0 -16.48,-1.07 -22.55,-3.19 -6.07,-2.12 -10.82,-5.31 -14.25,-9.59 -3.48,-4.26 -5.28,-9.08 -5.46,-14.46z"/>
  <polygon id="1" class="fil2" points="496.46,368.48 496.46,287.87 509.64,287.87 509.64,321.08 560.97,321.08 560.97,287.87 574.15,287.87 574.15,368.48 560.97,368.48 560.97,330.54 509.64,330.54 509.64,368.48 "/>
  <path class="fil2" d="M278.59 370.88l42.33 -160.77 16.05 0 44.93 160.77 -16.62 0 -12.77 -48.73 -46.46 0 -11.97 48.73 -15.49 0zm31.75 -66.01l37.6 0 -11.51 -44.58c-3.46,-13.54 -6.09,-24.73 -7.91,-33.56 -1.51,10.47 -3.54,20.77 -6.09,30.94l-12.09 47.2z"/>
  <path class="fil2" d="M699.72 370.16l45.57 -160.77 17.28 0 48.35 160.77 -17.88 0 -13.74 -48.73 -50.02 0 -12.88 48.73 -16.68 0zm34.18 -66.01l40.48 0 -12.39 -44.58c-3.73,-13.54 -6.56,-24.73 -8.52,-33.56 -1.63,10.47 -3.81,20.77 -6.55,30.94l-13.02 47.2z"/>
  <path class="fil2" d="M262.05 340.81l12.95 2.73c-2.71,8.85 -7.56,15.58 -14.58,20.22 -7.02,4.64 -15.59,6.97 -25.74,6.97 -10.49,0 -19.03,-1.78 -25.61,-5.36 -6.58,-3.56 -11.58,-8.74 -15.01,-15.5 -3.42,-6.79 -5.15,-14.05 -5.15,-21.82 0,-8.47 1.93,-15.86 5.81,-22.17 3.88,-6.32 9.39,-11.11 16.56,-14.39 7.15,-3.28 15.02,-4.91 23.61,-4.91 9.76,0 17.95,2.07 24.57,6.22 6.66,4.15 11.29,9.97 13.9,17.47l-12.66 2.51c-2.25,-5.92 -5.55,-10.24 -9.84,-12.93 -4.28,-2.71 -9.69,-4.06 -16.2,-4.06 -7.48,0 -13.74,1.5 -18.76,4.5 -5.02,2.99 -8.55,7.03 -10.58,12.07 -2.04,5.06 -3.06,10.27 -3.06,15.63 0,6.92 1.21,12.97 3.6,18.12 2.41,5.18 6.16,9.03 11.25,11.58 5.08,2.56 10.58,3.83 16.51,3.83 7.21,0 13.29,-1.74 18.29,-5.21 4.99,-3.49 8.38,-8.64 10.14,-15.5z"/>
  <path class="fil2" d="M666.62 340.35l13.32 2.71c-2.78,8.77 -7.78,15.44 -15,20.05 -7.22,4.6 -16.04,6.91 -26.47,6.91 -10.79,0 -19.58,-1.76 -26.35,-5.32 -6.77,-3.53 -11.9,-8.66 -15.43,-15.37 -3.52,-6.72 -5.29,-13.92 -5.29,-21.63 0,-8.4 1.97,-15.72 5.97,-21.98 3.99,-6.26 9.67,-11.01 17.03,-14.26 7.35,-3.26 15.45,-4.87 24.28,-4.87 10.04,0 18.46,2.05 25.28,6.16 6.85,4.12 11.61,9.89 14.29,17.33l-13.02 2.48c-2.31,-5.86 -5.7,-10.15 -10.11,-12.82 -4.42,-2.69 -9.97,-4.02 -16.68,-4.02 -7.68,0 -14.13,1.49 -19.28,4.45 -5.16,2.97 -8.8,6.98 -10.89,11.97 -2.1,5.02 -3.14,10.19 -3.14,15.51 0,6.86 1.23,12.85 3.7,17.96 2.48,5.13 6.34,8.95 11.57,11.48 5.23,2.54 10.87,3.8 16.97,3.8 7.42,0 13.68,-1.73 18.81,-5.17 5.15,-3.46 8.63,-8.57 10.44,-15.37z"/>
  <path class="fil2" d="M825.63 368.73l0 -81.42 38.14 0c7.67,0 13.5,0.74 17.48,2.2 3.99,1.45 7.17,4.03 9.56,7.73 2.37,3.69 3.56,7.79 3.56,12.26 0,5.78 -1.98,10.65 -5.93,14.61 -3.94,3.97 -10.03,6.47 -18.28,7.55 3.02,1.36 5.3,2.73 6.87,4.05 3.32,2.88 6.46,6.5 9.41,10.84l14.88 22.18 -14.22 0 -11.37 -16.94c-3.31,-4.91 -6.06,-8.65 -8.2,-11.24 -2.16,-2.6 -4.08,-4.4 -5.78,-5.44 -1.69,-1.03 -3.42,-1.75 -5.19,-2.16 -1.29,-0.25 -3.39,-0.38 -6.33,-0.38l-13.17 0 0 36.16 -11.43 0zm11.43 -45.49l24.42 0c5.21,0 9.26,-0.51 12.18,-1.53 2.92,-1.01 5.14,-2.64 6.65,-4.89 1.53,-2.24 2.29,-4.67 2.29,-7.3 0,-3.85 -1.47,-7.03 -4.41,-9.51 -2.95,-2.49 -7.6,-3.72 -13.94,-3.72l-27.19 0 0 26.95z"/>
 </g>
</svg>
